<?xml version="1.0" encoding="UTF-8"?>
<svg xmlns="http://www.w3.org/2000/svg" xmlns:xlink="http://www.w3.org/1999/xlink" width="50px" height="50px" viewBox="0 0 36 36" version="1.1">
<g id="surface1">
<path style=" stroke:none;fill-rule:nonzero;fill:rgb(18.823529%,18.823529%,18.823529%);fill-opacity:1;" d="M 14.011719 14.875 C 14.050781 15.050781 14.089844 15.226562 14.125 15.40625 L 14.230469 16.085938 C 14.871094 15.277344 15.753906 15.308594 15.765625 15.308594 L 16.453125 15.308594 C 16.351562 13.003906 16.96875 11.945312 17.164062 11.675781 C 17.203125 9.894531 17.789062 9.042969 17.816406 9.007812 C 17.824219 8.996094 17.839844 8.996094 17.851562 8.984375 C 17.859375 8.976562 17.859375 8.960938 17.871094 8.953125 C 17.886719 8.945312 17.902344 8.949219 17.917969 8.941406 C 17.945312 8.929688 17.96875 8.925781 18 8.925781 C 18.03125 8.925781 18.054688 8.929688 18.082031 8.941406 C 18.097656 8.949219 18.113281 8.941406 18.128906 8.953125 C 18.140625 8.960938 18.140625 8.976562 18.148438 8.984375 C 18.160156 8.996094 18.175781 8.996094 18.183594 9.007812 C 18.207031 9.042969 18.796875 9.894531 18.835938 11.675781 C 19.03125 11.945312 19.648438 13.003906 19.546875 15.308594 L 20.25 15.308594 C 20.25 15.304688 21.128906 15.269531 21.769531 16.082031 L 21.871094 15.425781 C 21.910156 15.230469 21.949219 15.054688 21.988281 14.878906 C 21.988281 14.878906 22.015625 14.761719 22.015625 14.746094 L 22.339844 13.476562 C 21.867188 10.800781 20.246094 9.902344 20.164062 9.859375 C 20.109375 9.832031 20.070312 9.777344 20.054688 9.71875 C 19.964844 9.375 19.859375 9.039062 19.730469 8.714844 C 19.628906 8.453125 19.507812 8.199219 19.367188 7.953125 C 19.257812 7.761719 19.136719 7.578125 18.996094 7.40625 C 18.886719 7.273438 18.769531 7.148438 18.644531 7.035156 C 18.550781 6.953125 18.449219 6.878906 18.34375 6.8125 C 18.238281 6.746094 18.125 6.671875 18.007812 6.636719 C 18.007812 6.636719 17.871094 6.699219 17.839844 6.710938 C 17.773438 6.742188 17.710938 6.773438 17.652344 6.8125 C 17.472656 6.921875 17.3125 7.0625 17.167969 7.214844 C 17.058594 7.332031 16.960938 7.457031 16.867188 7.585938 C 16.753906 7.746094 16.652344 7.910156 16.558594 8.085938 C 16.445312 8.292969 16.347656 8.511719 16.261719 8.730469 C 16.15625 8.996094 16.070312 9.269531 15.992188 9.546875 C 15.976562 9.601562 15.960938 9.660156 15.945312 9.71875 C 15.929688 9.777344 15.890625 9.832031 15.835938 9.859375 C 15.753906 9.902344 14.132812 10.800781 13.660156 13.476562 L 13.96875 14.695312 Z M 14.011719 14.875 "/>
<path style=" stroke:none;fill-rule:nonzero;fill:rgb(18.823529%,18.823529%,18.823529%);fill-opacity:1;" d="M 18.386719 11.761719 C 18.375 10.722656 18.160156 10.023438 18 9.632812 C 17.839844 10.023438 17.625 10.722656 17.613281 11.761719 C 17.609375 11.8125 17.589844 11.867188 17.554688 11.90625 C 17.546875 11.914062 16.792969 12.835938 16.902344 15.308594 L 19.097656 15.308594 C 19.207031 12.835938 18.453125 11.914062 18.445312 11.90625 C 18.410156 11.867188 18.390625 11.8125 18.386719 11.761719 Z M 18.386719 11.761719 "/>
<path style=" stroke:none;fill-rule:nonzero;fill:rgb(18.823529%,18.823529%,18.823529%);fill-opacity:1;" d="M 7.96875 10.121094 C 7.96875 10.128906 7.972656 10.136719 7.972656 10.144531 L 8.429688 10.125 C 8.429688 10.125 8.210938 10.109375 7.96875 10.121094 Z M 7.96875 10.121094 "/>
<path style=" stroke:none;fill-rule:nonzero;fill:rgb(18.823529%,18.823529%,18.823529%);fill-opacity:1;" d="M 11.832031 9 C 11.847656 9.035156 11.867188 9.0625 11.886719 9.097656 L 12.054688 9.417969 L 12.109375 9.523438 C 12.617188 10.511719 13.046875 11.550781 13.398438 12.625 C 13.980469 10.601562 15.191406 9.726562 15.535156 9.511719 C 15.65625 9.058594 15.800781 8.605469 16 8.175781 C 16.183594 7.785156 16.421875 7.453125 16.6875 7.117188 C 16.164062 7.195312 13.433594 7.671875 11.832031 9 Z M 11.832031 9 "/>
<path style=" stroke:none;fill-rule:nonzero;fill:rgb(18.823529%,18.823529%,18.823529%);fill-opacity:1;" d="M 19.726562 7.648438 C 19.582031 7.429688 19.371094 7.128906 19.371094 7.128906 Z M 19.726562 7.648438 "/>
<path style=" stroke:none;fill-rule:nonzero;fill:rgb(18.823529%,18.823529%,18.823529%);fill-opacity:1;" d="M 26.121094 11.34375 L 26.46875 11.058594 C 26.277344 11.179688 26.121094 11.34375 26.121094 11.34375 Z M 26.121094 11.34375 "/>
<path style=" stroke:none;fill-rule:nonzero;fill:rgb(18.823529%,18.823529%,18.823529%);fill-opacity:1;" d="M 31.238281 18.285156 C 30.3125 15.324219 27.226562 11.875 26.46875 11.058594 L 26.121094 11.34375 C 25.636719 11.800781 25.242188 12.515625 25.28125 13.636719 C 25.28125 13.671875 25.296875 16.265625 26.328125 17.09375 C 27.601562 18.109375 27.988281 19.296875 27.421875 20.4375 C 26.90625 21.472656 24.6875 23.785156 24.332031 24.152344 C 24.304688 24.273438 24.234375 24.550781 24.113281 24.921875 L 23.960938 25.359375 C 24.703125 25.871094 25.746094 26.136719 26.835938 26.136719 C 28.109375 26.136719 29.425781 25.789062 30.328125 25.101562 C 32.023438 23.800781 32.304688 21.699219 31.238281 18.285156 Z M 29.804688 23.144531 C 29.75 23.144531 29.695312 23.125 29.652344 23.085938 C 29.558594 23.003906 29.554688 22.859375 29.636719 22.769531 C 30.375 21.96875 29.746094 19.644531 29.445312 18.816406 C 29.402344 18.699219 29.460938 18.570312 29.578125 18.527344 C 29.695312 18.484375 29.824219 18.542969 29.867188 18.660156 C 29.914062 18.792969 31.042969 21.910156 29.96875 23.074219 C 29.925781 23.121094 29.863281 23.144531 29.804688 23.144531 Z M 29.804688 23.144531 "/>
<path style=" stroke:none;fill-rule:nonzero;fill:rgb(18.823529%,18.823529%,18.823529%);fill-opacity:1;" d="M 11.886719 24.921875 C 11.765625 24.550781 11.695312 24.273438 11.667969 24.152344 C 11.664062 24.148438 11.660156 24.140625 11.65625 24.140625 C 11.296875 24.304688 10.328125 24.695312 9.160156 24.695312 C 8.210938 24.695312 7.136719 24.433594 6.175781 23.566406 C 6.085938 23.484375 6.078125 23.339844 6.160156 23.25 C 6.246094 23.15625 6.386719 23.148438 6.480469 23.230469 C 8.285156 24.867188 10.558594 24.121094 11.328125 23.792969 C 10.585938 23.011719 9.003906 21.292969 8.578125 20.4375 C 8.011719 19.296875 8.398438 18.109375 9.671875 17.09375 C 10.703125 16.265625 10.71875 13.671875 10.71875 13.644531 C 10.757812 12.515625 10.363281 11.800781 9.882812 11.339844 L 9.53125 11.054688 C 8.777344 11.871094 5.691406 15.324219 4.761719 18.285156 C 3.695312 21.699219 3.976562 23.800781 5.671875 25.101562 C 6.574219 25.789062 7.890625 26.136719 9.164062 26.136719 C 10.253906 26.136719 11.292969 25.871094 12.039062 25.359375 Z M 5.753906 22.636719 C 5.652344 22.636719 5.5625 22.570312 5.535156 22.46875 C 5.53125 22.445312 5.378906 21.871094 5.535156 21.191406 C 5.5625 21.066406 5.683594 20.992188 5.804688 21.019531 C 5.925781 21.046875 6 21.167969 5.972656 21.289062 C 5.84375 21.859375 5.96875 22.347656 5.972656 22.351562 C 6.003906 22.472656 5.929688 22.59375 5.8125 22.628906 C 5.792969 22.632812 5.773438 22.636719 5.753906 22.636719 Z M 5.753906 22.636719 "/>
<path style=" stroke:none;fill-rule:nonzero;fill:rgb(18.823529%,18.823529%,18.823529%);fill-opacity:1;" d="M 9.53125 11.054688 L 9.882812 11.339844 C 9.632812 11.042969 9.53125 11.054688 9.53125 11.054688 Z M 9.53125 11.054688 "/>
<path style=" stroke:none;fill-rule:nonzero;fill:rgb(18.823529%,18.823529%,18.823529%);fill-opacity:1;" d="M 19.371094 7.128906 C 19.371094 7.128906 19.582031 7.429688 19.726562 7.648438 C 19.996094 8.105469 20.253906 8.710938 20.464844 9.511719 C 20.808594 9.726562 22.019531 10.601562 22.601562 12.625 C 22.953125 11.550781 23.382812 10.511719 23.886719 9.527344 L 23.945312 9.417969 L 24.113281 9.101562 C 24.132812 9.066406 24.152344 9.039062 24.171875 9.003906 C 22.566406 7.675781 19.894531 7.207031 19.371094 7.128906 Z M 19.371094 7.128906 "/>
<path style=" stroke:none;fill-rule:nonzero;fill:rgb(18.823529%,18.823529%,18.823529%);fill-opacity:1;" d="M 28.0625 6.902344 C 28.058594 6.894531 28.058594 6.882812 28.054688 6.875 C 27.828125 7.035156 27.65625 7.183594 27.65625 7.183594 C 25.5 8.828125 24.15625 13.082031 23.675781 15.933594 C 23.484375 17.078125 21.972656 26.722656 21.957031 26.820312 C 21.828125 27.589844 21.625 28.199219 21.386719 28.691406 C 23.296875 26.789062 23.898438 24.027344 23.90625 23.992188 C 23.914062 23.953125 23.933594 23.914062 23.964844 23.882812 C 23.988281 23.855469 26.5 21.277344 27.019531 20.234375 C 27.613281 19.042969 26.820312 18.0625 26.046875 17.445312 C 24.84375 16.484375 24.832031 13.761719 24.832031 13.644531 C 24.785156 12.246094 25.339844 11.394531 25.976562 10.875 C 25.976562 10.875 25.976562 10.871094 25.980469 10.867188 C 25.984375 10.863281 25.992188 10.863281 25.996094 10.859375 C 26.601562 10.375 27.273438 10.1875 27.570312 10.125 L 28.035156 10.113281 C 28.035156 10.101562 28.039062 10.09375 28.039062 10.082031 C 28.335938 8.851562 28.238281 7.726562 28.0625 6.902344 Z M 28.0625 6.902344 "/>
<path style=" stroke:none;fill-rule:nonzero;fill:rgb(18.823529%,18.823529%,18.823529%);fill-opacity:1;" d="M 12.363281 15.757812 C 11.988281 13.820312 10.5 8.832031 8.34375 7.183594 C 8.34375 7.183594 8.144531 7.035156 7.941406 6.898438 C 7.9375 6.902344 7.9375 6.90625 7.9375 6.914062 C 7.761719 7.742188 7.664062 8.878906 7.96875 10.121094 C 8.210938 10.109375 8.429688 10.125 8.429688 10.125 C 8.722656 10.1875 9.394531 10.375 10 10.859375 C 10.003906 10.863281 10.015625 10.863281 10.019531 10.867188 C 10.023438 10.871094 10.023438 10.875 10.023438 10.878906 C 10.660156 11.398438 11.214844 12.253906 11.167969 13.652344 C 11.167969 13.761719 11.15625 16.484375 9.953125 17.445312 C 9.179688 18.0625 8.386719 19.042969 8.980469 20.234375 C 9.5 21.277344 12.011719 23.855469 12.035156 23.882812 C 12.066406 23.914062 12.085938 23.953125 12.09375 23.992188 C 12.101562 24.027344 12.703125 26.785156 14.613281 28.6875 C 14.375 28.199219 14.171875 27.59375 14.042969 26.820312 C 14.027344 26.722656 12.582031 16.898438 12.363281 15.757812 Z M 12.363281 15.757812 "/>
<path style=" stroke:none;fill-rule:nonzero;fill:rgb(18.823529%,18.823529%,18.823529%);fill-opacity:1;" d="M 17.195312 30.214844 C 17.191406 30.203125 17.183594 30.195312 17.179688 30.1875 C 15.144531 27.101562 14.855469 23.234375 14.371094 19.570312 C 14.035156 17.039062 13.574219 14.511719 12.722656 12.105469 C 11.867188 9.699219 10.601562 7.410156 8.8125 5.589844 C 8.714844 5.488281 8.574219 5.382812 8.453125 5.449219 C 8.378906 5.488281 8.34375 5.574219 8.316406 5.65625 C 8.234375 5.90625 8.148438 6.160156 8.066406 6.410156 C 8.867188 6.988281 9.507812 7.761719 10.054688 8.585938 C 11.957031 11.457031 12.722656 14.917969 13.242188 18.324219 C 13.757812 21.726562 14.074219 25.195312 15.207031 28.445312 C 15.363281 28.894531 15.554688 29.375 15.941406 29.679688 C 16.0625 29.773438 17.046875 30.671875 17.207031 30.574219 C 17.320312 30.503906 17.269531 30.335938 17.195312 30.214844 Z M 17.195312 30.214844 "/>
<path style=" stroke:none;fill-rule:nonzero;fill:rgb(18.823529%,18.823529%,18.823529%);fill-opacity:1;" d="M 20.265625 15.757812 L 15.75 15.757812 C 15.691406 15.757812 14.8125 15.71875 14.335938 16.746094 L 14.484375 17.699219 C 14.785156 19.601562 15.199219 22.238281 15.433594 23.816406 L 15.527344 24.457031 C 16.671875 25.464844 17.976562 25.425781 17.988281 25.421875 C 17.992188 25.421875 17.996094 25.425781 18 25.425781 C 18.003906 25.425781 18.007812 25.421875 18.011719 25.421875 C 18.078125 25.425781 19.34375 25.457031 20.472656 24.457031 L 20.566406 23.816406 C 20.800781 22.25 21.214844 19.605469 21.511719 17.699219 L 21.664062 16.742188 C 21.1875 15.707031 20.3125 15.753906 20.265625 15.757812 Z M 17.96875 16.289062 C 18.335938 16.289062 18.628906 16.585938 18.628906 16.953125 C 18.628906 17.316406 18.335938 17.613281 17.96875 17.613281 C 17.605469 17.613281 17.308594 17.316406 17.308594 16.953125 C 17.308594 16.585938 17.605469 16.289062 17.96875 16.289062 Z M 17.160156 23.671875 C 17.160156 23.671875 17.992188 24.09375 18.550781 23.671875 C 18.550781 23.671875 17.980469 24.546875 17.160156 23.671875 Z M 17.898438 23.398438 L 16.386719 23.289062 L 17.527344 22.921875 L 17.945312 23.105469 L 18.332031 22.921875 L 19.410156 23.289062 Z M 18.050781 22.195312 C 18.027344 22.207031 17.996094 22.210938 17.96875 22.210938 C 17.941406 22.210938 17.914062 22.207031 17.886719 22.195312 L 17.148438 21.902344 C 17.03125 21.855469 16.976562 21.726562 17.023438 21.609375 C 17.070312 21.496094 17.199219 21.4375 17.316406 21.484375 L 17.96875 21.746094 L 18.046875 21.714844 L 18.574219 21.507812 C 18.691406 21.460938 18.820312 21.519531 18.867188 21.632812 C 18.910156 21.75 18.855469 21.878906 18.738281 21.925781 L 18.363281 22.074219 Z M 18.050781 22.195312 "/>
<path style=" stroke:none;fill-rule:nonzero;fill:rgb(18.823529%,18.823529%,18.823529%);fill-opacity:1;" d="M 9.164062 26.136719 C 10.253906 26.136719 11.292969 25.871094 12.039062 25.359375 L 11.886719 24.921875 C 11.765625 24.550781 11.695312 24.273438 11.667969 24.152344 C 11.664062 24.148438 11.660156 24.140625 11.65625 24.140625 C 11.296875 24.304688 10.328125 24.695312 9.160156 24.695312 "/>
<path style=" stroke:none;fill-rule:nonzero;fill:rgb(18.823529%,18.823529%,18.823529%);fill-opacity:1;" d="M 6.480469 23.230469 C 8.285156 24.867188 10.558594 24.121094 11.328125 23.792969 C 10.585938 23.011719 9.003906 21.292969 8.578125 20.4375 "/>
<path style=" stroke:none;fill-rule:nonzero;fill:rgb(18.823529%,18.823529%,18.823529%);fill-opacity:1;" d="M 8.980469 20.234375 C 9.5 21.277344 12.011719 23.855469 12.035156 23.882812 C 12.066406 23.914062 12.085938 23.953125 12.09375 23.992188 C 12.101562 24.027344 12.703125 26.785156 14.613281 28.6875 C 14.375 28.199219 14.171875 27.59375 14.042969 26.820312 C 14.027344 26.722656 12.582031 16.898438 12.363281 15.757812 "/>
<path style=" stroke:none;fill-rule:nonzero;fill:rgb(18.823529%,18.823529%,18.823529%);fill-opacity:1;" d="M 13.242188 18.324219 C 13.757812 21.726562 14.074219 25.195312 15.207031 28.445312 C 15.363281 28.894531 15.554688 29.375 15.941406 29.679688 C 16.0625 29.773438 17.046875 30.671875 17.207031 30.574219 C 17.320312 30.503906 17.269531 30.335938 17.195312 30.214844 C 17.191406 30.203125 17.183594 30.195312 17.179688 30.1875 C 15.144531 27.101562 14.855469 23.234375 14.371094 19.570312 "/>
<path style=" stroke:none;fill-rule:nonzero;fill:rgb(18.823529%,18.823529%,18.823529%);fill-opacity:1;" d="M 27.941406 6.410156 C 27.792969 5.894531 27.640625 5.574219 27.609375 5.527344 C 27.585938 5.484375 27.550781 5.449219 27.492188 5.425781 C 27.445312 5.410156 27.390625 5.417969 27.324219 5.4375 C 27.316406 5.441406 27.316406 5.449219 27.308594 5.453125 C 27.296875 5.464844 27.28125 5.464844 27.269531 5.476562 C 27.246094 5.496094 25.863281 6.824219 24.511719 9.3125 L 24.289062 9.734375 C 23.742188 10.800781 23.214844 12.054688 22.796875 13.496094 C 22.796875 13.496094 22.464844 14.804688 22.464844 14.804688 C 22.414062 15.035156 22.363281 15.257812 22.316406 15.496094 C 22.304688 15.574219 22.234375 16.027344 22.128906 16.691406 L 21.957031 17.769531 C 21.875 18.308594 20.894531 24.707031 20.890625 24.714844 C 20.503906 26.664062 19.921875 28.539062 18.832031 30.1875 C 18.828125 30.195312 18.820312 30.203125 18.816406 30.214844 C 18.742188 30.335938 18.691406 30.503906 18.804688 30.574219 C 18.964844 30.671875 19.953125 29.773438 20.070312 29.679688 C 20.457031 29.375 20.648438 28.894531 20.804688 28.445312 C 21.171875 27.402344 21.445312 26.335938 21.671875 25.253906 C 21.671875 25.253906 22.386719 20.996094 22.632812 19.273438 C 22.898438 17.585938 23.132812 16.085938 23.203125 15.65625 C 23.605469 13.507812 24.300781 11.703125 25.03125 10.257812 C 25.5625 9.0625 26.203125 7.9375 26.96875 7.183594 C 26.980469 7.171875 26.996094 7.160156 27.007812 7.148438 C 27.136719 7.023438 27.265625 6.902344 27.402344 6.800781 L 27.949219 6.441406 C 27.945312 6.429688 27.941406 6.417969 27.941406 6.410156 Z M 27.941406 6.410156 "/>
</g>
</svg>
